<?xml version="1.0" standalone="no"?>
<!DOCTYPE svg PUBLIC "-//W3C//DTD SVG 20010904//EN"
 "http://www.w3.org/TR/2001/REC-SVG-20010904/DTD/svg10.dtd">
<svg version="1.0" xmlns="http://www.w3.org/2000/svg"
 width="114.000000pt" height="154.000000pt" viewBox="0 0 114.000000 154.000000"
 preserveAspectRatio="xMidYMid meet">

<g transform="translate(0.000000,154.000000) scale(0.100000,-0.100000)"
fill="#000000" stroke="none">
<path d="M235 1413 c-40 -21 -84 -62 -101 -95 -12 -22 -22 -28 -49 -28 l-35 0
0 -275 0 -275 280 0 280 0 0 275 0 275 -35 0 c-27 0 -37 6 -49 28 -18 34 -62
75 -103 96 -42 21 -148 21 -188 -1z m192 -14 c62 -30 119 -109 79 -109 -8 0
-17 11 -20 25 -4 14 -17 32 -31 41 -22 14 -28 15 -47 2 -17 -11 -30 -12 -50
-4 -19 6 -37 7 -55 0 -21 -7 -35 -6 -56 6 -27 14 -29 14 -53 -13 -13 -15 -24
-35 -24 -43 0 -8 -7 -14 -15 -14 -41 0 14 76 80 109 53 28 135 28 192 0z
m-181 -47 c11 -7 34 -45 34 -56 0 -3 -23 -6 -51 -6 -48 0 -50 1 -44 23 7 20
32 47 44 47 3 0 11 -4 17 -8z m131 -16 c1 -1 0 -12 -4 -24 -4 -18 -13 -22 -44
-22 -22 0 -39 4 -39 9 0 5 -3 16 -6 24 -4 11 2 17 18 20 20 4 69 0 75 -7z m63
-16 c0 -16 -4 -30 -10 -30 -5 0 -10 14 -10 30 0 17 5 30 10 30 6 0 10 -13 10
-30z m-44 -27 c-11 -11 -17 4 -9 23 7 18 8 18 11 1 2 -10 1 -21 -2 -24z m84 5
c0 -5 -4 -8 -10 -8 -5 0 -10 10 -10 23 0 18 2 19 10 7 5 -8 10 -18 10 -22z
m-40 -279 l0 -139 -110 0 -110 0 0 139 0 139 110 0 110 0 0 -139z"/>
<path d="M780 980 l0 -390 85 0 85 0 0 175 0 175 80 0 81 0 -3 68 -3 67 -77 3
-78 3 0 144 0 145 -85 0 -85 0 0 -390z"/>
<path d="M480 600 c0 -22 -6 -56 -14 -74 -33 -80 -153 -161 -275 -187 -31 -7
-60 -15 -64 -19 -9 -8 48 -130 61 -130 4 0 40 9 80 20 105 29 187 74 248 135
l54 53 53 -51 c64 -63 147 -109 247 -136 41 -12 78 -21 82 -21 13 0 70 122 61
130 -4 4 -34 12 -65 19 -161 34 -288 150 -288 261 l0 40 -90 0 -90 0 0 -40z"/>
</g>
</svg>
